<svg width="100" height="102" viewBox="0 0 100 102" fill="none" xmlns="http://www.w3.org/2000/svg">
<g id="Facebook">
<g id="Rectangle 5" filter="url(#filter0_d_101_53)">
<path d="M4 15C4 6.71573 10.7157 0 19 0H81C89.2843 0 96 6.71573 96 15V64C96 80.5685 82.5685 94 66 94H4V15Z" fill="white"/>
</g>
<path id="Facebook Icon" d="M63.6409 51.6875L65.5077 39.5621H53.8355V31.6935C53.8355 28.3762 55.466 25.1427 60.6936 25.1427H66V14.8192C66 14.8192 61.1846 14 56.5806 14C46.9681 14 40.685 19.8075 40.685 30.3208V39.5621H30V51.6875H40.685V81H53.8355V51.6875H63.6409Z" fill="black"/>
</g>
<defs>
<filter id="filter0_d_101_53" x="0" y="0" width="100" height="102" filterUnits="userSpaceOnUse" color-interpolation-filters="sRGB">
<feFlood flood-opacity="0" result="BackgroundImageFix"/>
<feColorMatrix in="SourceAlpha" type="matrix" values="0 0 0 0 0 0 0 0 0 0 0 0 0 0 0 0 0 0 127 0" result="hardAlpha"/>
<feOffset dy="4"/>
<feGaussianBlur stdDeviation="2"/>
<feComposite in2="hardAlpha" operator="out"/>
<feColorMatrix type="matrix" values="0 0 0 0 0 0 0 0 0 0 0 0 0 0 0 0 0 0 0.25 0"/>
<feBlend mode="normal" in2="BackgroundImageFix" result="effect1_dropShadow_101_53"/>
<feBlend mode="normal" in="SourceGraphic" in2="effect1_dropShadow_101_53" result="shape"/>
</filter>
</defs>
</svg>
