<svg width="100" height="102" viewBox="0 0 100 102" fill="none" xmlns="http://www.w3.org/2000/svg">
<g id="Instagram">
<g id="Rectangle 6" filter="url(#filter0_d_101_56)">
<path d="M4 15C4 6.71573 10.7157 0 19 0H81C89.2843 0 96 6.71573 96 15V64C96 80.5685 82.5685 94 66 94H4V15Z" fill="#879DEB"/>
</g>
<path id="Vector" d="M50.0047 36.2317C44.0455 36.2317 39.2388 41.0395 39.2388 47C39.2388 52.9605 44.0455 57.7683 50.0047 57.7683C55.9639 57.7683 60.7706 52.9605 60.7706 47C60.7706 41.0395 55.9639 36.2317 50.0047 36.2317ZM50.0047 54.0008C46.1537 54.0008 43.0055 50.8612 43.0055 47C43.0055 43.1388 46.1443 39.9992 50.0047 39.9992C53.865 39.9992 57.0039 43.1388 57.0039 47C57.0039 50.8612 53.8557 54.0008 50.0047 54.0008ZM63.722 35.7913C63.722 37.1877 62.5977 38.3029 61.2109 38.3029C59.8148 38.3029 58.6998 37.1783 58.6998 35.7913C58.6998 34.4042 59.8242 33.2796 61.2109 33.2796C62.5977 33.2796 63.722 34.4042 63.722 35.7913ZM70.8524 38.3404C70.6931 34.9759 69.9248 31.9956 67.4606 29.5402C65.0057 27.0848 62.0261 26.3163 58.6624 26.1476C55.1955 25.9508 44.8045 25.9508 41.3376 26.1476C37.9833 26.3069 35.0037 27.0754 32.5394 29.5308C30.0752 31.9863 29.3162 34.9665 29.1476 38.331C28.9508 41.7986 28.9508 52.192 29.1476 55.6596C29.3069 59.0241 30.0752 62.0044 32.5394 64.4598C35.0037 66.9152 37.9739 67.6837 41.3376 67.8524C44.8045 68.0492 55.1955 68.0492 58.6624 67.8524C62.0261 67.6931 65.0057 66.9246 67.4606 64.4598C69.9154 62.0044 70.6838 59.0241 70.8524 55.6596C71.0492 52.192 71.0492 41.808 70.8524 38.3404ZM66.3737 59.3802C65.6428 61.2171 64.228 62.6323 62.3822 63.3726C59.6181 64.4692 53.0592 64.2161 50.0047 64.2161C46.9501 64.2161 40.3819 64.4598 37.6272 63.3726C35.7907 62.6416 34.3759 61.2265 33.6357 59.3802C32.5394 56.6155 32.7924 50.0552 32.7924 47C32.7924 43.9448 32.5488 37.3751 33.6357 34.6198C34.3665 32.7829 35.7814 31.3677 37.6272 30.6274C40.3913 29.5308 46.9501 29.7839 50.0047 29.7839C53.0592 29.7839 59.6274 29.5402 62.3822 30.6274C64.2186 31.3584 65.6335 32.7735 66.3737 34.6198C67.4699 37.3845 67.217 43.9448 67.217 47C67.217 50.0552 67.4699 56.6249 66.3737 59.3802Z" fill="white"/>
</g>
<defs>
<filter id="filter0_d_101_56" x="0" y="0" width="100" height="102" filterUnits="userSpaceOnUse" color-interpolation-filters="sRGB">
<feFlood flood-opacity="0" result="BackgroundImageFix"/>
<feColorMatrix in="SourceAlpha" type="matrix" values="0 0 0 0 0 0 0 0 0 0 0 0 0 0 0 0 0 0 127 0" result="hardAlpha"/>
<feOffset dy="4"/>
<feGaussianBlur stdDeviation="2"/>
<feComposite in2="hardAlpha" operator="out"/>
<feColorMatrix type="matrix" values="0 0 0 0 0 0 0 0 0 0 0 0 0 0 0 0 0 0 0.25 0"/>
<feBlend mode="normal" in2="BackgroundImageFix" result="effect1_dropShadow_101_56"/>
<feBlend mode="normal" in="SourceGraphic" in2="effect1_dropShadow_101_56" result="shape"/>
</filter>
</defs>
</svg>
