<svg width="54" height="48" viewBox="0 0 54 48" fill="none" xmlns="http://www.w3.org/2000/svg">
<path id="Vector" d="M27 0C12.0867 0 0 9.975 0 22.2857C0 27.6 2.25703 32.4643 6.01172 36.2893C4.69336 41.6893 0.284766 46.5 0.232031 46.5536C0 46.8 -0.0632812 47.1643 0.0738281 47.4857C0.210938 47.8071 0.50625 48 0.84375 48C7.83633 48 13.0781 44.5929 15.6727 42.4929C19.1215 43.8107 22.95 44.5714 27 44.5714C41.9133 44.5714 54 34.5964 54 22.2857C54 9.975 41.9133 0 27 0ZM13.5 25.7143C11.6332 25.7143 10.125 24.1821 10.125 22.2857C10.125 20.3893 11.6332 18.8571 13.5 18.8571C15.3668 18.8571 16.875 20.3893 16.875 22.2857C16.875 24.1821 15.3668 25.7143 13.5 25.7143ZM27 25.7143C25.1332 25.7143 23.625 24.1821 23.625 22.2857C23.625 20.3893 25.1332 18.8571 27 18.8571C28.8668 18.8571 30.375 20.3893 30.375 22.2857C30.375 24.1821 28.8668 25.7143 27 25.7143ZM40.5 25.7143C38.6332 25.7143 37.125 24.1821 37.125 22.2857C37.125 20.3893 38.6332 18.8571 40.5 18.8571C42.3668 18.8571 43.875 20.3893 43.875 22.2857C43.875 24.1821 42.3668 25.7143 40.5 25.7143Z" fill="#DD0909"/>
</svg>
